<svg width="120" height="120" viewBox="0 0 120 120" fill="none" xmlns="http://www.w3.org/2000/svg">
<path d="M106.8 25.3199V23.9999H108.12C108.6 23.9999 108.96 23.6399 109.08 23.1599C109.08 22.6799 108.72 22.3199 108.24 22.1999H106.92V20.8799C106.92 20.3999 106.56 20.0399 106.08 19.9199C105.6 19.9199 105.24 20.2799 105.12 20.7599V22.0799H103.8C103.32 22.0799 102.96 22.4399 102.84 22.9199C102.84 23.3999 103.2 23.7599 103.68 23.8799H105V25.1999C105 25.6799 105.36 26.0399 105.84 26.1599C106.44 26.1599 106.8 25.7999 106.8 25.3199Z" fill="#978959"/>
<path d="M11.5198 25.4401C11.7598 25.9201 12.2398 26.1601 12.7198 25.9201L13.9198 25.4401L14.3998 26.6401C14.6398 27.1201 15.1198 27.3601 15.4798 27.1201C15.9598 26.8801 16.1998 26.4001 15.9598 26.0401L15.4798 24.8401L16.6798 24.3601C17.1598 24.2401 17.3998 23.6401 17.1598 23.1601C17.0398 22.6801 16.4398 22.4401 16.0798 22.6801L14.8798 23.1601L14.3998 21.9601C14.2798 21.4801 13.6798 21.2401 13.1998 21.4801C12.7198 21.6001 12.4798 22.2001 12.7198 22.5601L13.1998 23.7601L11.9998 24.2401C11.5198 24.4801 11.3998 25.0801 11.5198 25.4401Z" fill="#978959"/>
<path d="M5.27961 78.1201C5.51961 78.6001 5.99961 78.8401 6.47961 78.6001L7.67961 78.1201L8.15961 79.3201C8.39961 79.8001 8.87961 80.0401 9.23961 79.8001C9.71961 79.5601 9.95961 79.0801 9.71961 78.7201L9.23961 77.5201L10.4396 77.0401C10.9196 76.9201 11.1596 76.3201 10.9196 75.8401C10.7996 75.3601 10.1996 75.1201 9.83961 75.3601L8.63961 75.8401L8.15961 74.6401C8.03961 74.1601 7.43961 73.9201 6.95961 74.1601C6.47961 74.2801 6.23961 74.8801 6.47961 75.2401L6.95961 76.4401L5.75961 76.9201C5.27961 77.1601 5.15961 77.6401 5.27961 78.1201Z" fill="#978959"/>
<path d="M75.3599 101.36C75.2399 100.88 74.8799 100.52 74.3999 100.64L73.1999 100.88L72.9599 99.68C72.8399 99.2 72.4799 98.84 71.9999 98.96C71.5199 99.08 71.1599 99.44 71.2799 99.92L71.5199 101.12L70.3199 101.36C69.8399 101.48 69.4799 101.84 69.5999 102.32C69.7199 102.8 70.0799 103.16 70.5599 103.04L71.7599 102.8L71.9999 104C72.1199 104.48 72.4799 104.84 72.9599 104.72C73.4399 104.6 73.7999 104.24 73.6799 103.76L73.4399 102.56L74.6399 102.32C75.1199 102.32 75.4799 101.84 75.3599 101.36Z" fill="#978959"/>
<path d="M4.7998 91.3201C4.7998 92.0401 5.2798 92.5201 5.9998 92.5201H9.8398C10.5598 92.5201 11.0398 92.0401 11.0398 91.3201C11.0398 90.6001 10.5598 90.1201 9.8398 90.1201H5.9998C5.2798 90.1201 4.7998 90.6001 4.7998 91.3201Z" fill="#978959"/>
<path d="M115.2 91.3201C115.2 90.6001 114.72 90.1201 114 90.1201H107.64C106.92 90.1201 106.44 90.6001 106.44 91.3201C106.44 92.0401 106.92 92.5201 107.64 92.5201H114C114.72 92.5201 115.2 92.0401 115.2 91.3201Z" fill="#978959"/>
<path d="M80.7652 53.3715L80.701 52.9461C80.3585 50.6766 79.4803 48.5994 78.174 46.8335L77.9179 46.4872L78.2225 46.1826L80.1109 44.2942C80.7464 43.6587 80.7476 42.6277 80.1105 41.9874C79.4744 41.3516 78.4439 41.3518 77.808 41.9877L75.916 43.8797L75.6114 44.1843L75.2651 43.9281C73.4992 42.6219 71.4221 41.7437 69.149 41.4012L68.7235 41.3371V40.9068V38.2228C68.7235 37.3236 67.9942 36.5943 67.095 36.5943C66.1958 36.5943 65.4665 37.3236 65.4665 38.2228V40.9032V41.3334L65.0411 41.3976C62.7717 41.7401 60.6943 42.6183 58.9246 43.9248L58.5783 44.1804L58.274 43.8761L56.382 41.9841C55.746 41.3481 54.7152 41.3481 54.0791 41.9841C53.4436 42.6197 53.4424 43.6507 54.0795 44.291C54.0796 44.2911 54.0798 44.2912 54.0799 44.2914L55.9676 46.179L56.2721 46.4836L56.016 46.8299C54.7097 48.5958 53.8315 50.673 53.489 52.9425L53.4248 53.3679H52.9946H50.3214C49.4222 53.3679 48.6929 54.0972 48.6929 54.9964C48.6929 55.8956 49.4222 56.6249 50.3214 56.6249H53.0018H53.432L53.4962 57.0503C53.8387 59.3198 54.7169 61.397 56.0231 63.1629L56.2793 63.5092L55.9747 63.8138L54.0863 65.7022C53.4507 66.3378 53.4496 67.3691 54.087 68.0094C54.4051 68.3271 54.8206 68.4857 55.2378 68.4857C55.6552 68.4857 56.071 68.3269 56.3892 68.0087L58.2812 66.1167L58.5858 65.8121L58.9321 66.0683C60.6979 67.3745 62.7751 68.2527 65.0482 68.5952L65.4737 68.6594V69.0897V71.77C65.4737 72.6692 66.203 73.3985 67.1022 73.3985C68.0014 73.3985 68.7307 72.6692 68.7307 71.77V69.0897V68.6595L69.1561 68.5953C71.4255 68.2528 73.5029 67.3745 75.2726 66.068L75.6188 65.8124L75.9231 66.1167L77.8151 68.0087C78.1333 68.3269 78.5492 68.4857 78.9666 68.4857C79.384 68.4857 79.7999 68.3269 80.118 68.0087C80.7534 67.3733 80.7548 66.3425 80.118 65.7022L80.7652 53.3715ZM80.7652 53.3715H81.1954H83.8758C84.7782 53.3715 85.5114 54.1005 85.5114 54.9964C85.5114 55.8956 84.7821 56.6249 83.8829 56.6249H81.2026H80.7724L80.7082 57.0503C80.3657 59.3198 79.4875 61.397 78.1812 63.1629L77.925 63.5092L78.2296 63.8138L80.1173 65.7015L80.7652 53.3715ZM97.1214 33.7041V33.7043V76.2993C97.1214 85.0282 90.0209 92.1286 81.2958 92.1286H38.7007C29.9755 92.1286 22.875 85.0282 22.875 76.2993V33.7043C22.875 24.9754 29.9755 17.875 38.7007 17.875H81.2993C90.0245 17.875 97.1249 24.9754 97.1214 33.7041ZM93.868 76.2957V75.7957H93.8644V33.7043C93.8644 26.7739 88.2262 21.1356 81.2958 21.1356H38.7007C31.7703 21.1356 26.132 26.7739 26.132 33.7043V76.2957C26.132 83.2262 31.7703 88.8644 38.7007 88.8644H81.2993C88.2297 88.8644 93.868 83.2262 93.868 76.2957ZM37.0201 38.0778L37.0216 38.0778C37.9188 38.0751 38.6486 38.8027 38.6486 39.7063V46.8049C38.6486 47.7041 37.9193 48.4334 37.0201 48.4334C36.1209 48.4334 35.3916 47.7041 35.3916 46.8049V39.7063C35.3916 38.8071 36.1209 38.0778 37.0201 38.0778ZM56.5438 55C56.5438 60.8161 61.2791 65.5513 67.0986 65.5513C72.918 65.5513 77.6534 60.8161 77.6534 55C77.6534 49.1838 72.9143 44.4487 67.0986 44.4487C61.2828 44.4487 56.5438 49.1838 56.5438 55ZM38.6486 63.1951V70.2937C38.6486 71.1929 37.9193 71.9222 37.0201 71.9222C36.1209 71.9222 35.3916 71.1929 35.3916 70.2937V63.1951C35.3916 62.2959 36.1209 61.5666 37.0201 61.5666C37.9193 61.5666 38.6486 62.2959 38.6486 63.1951Z" fill="#978959" stroke="white"/>
<path d="M88.9198 79.9199C88.5598 79.9199 88.3198 80.1599 88.3198 80.5199C88.3198 80.8799 88.5598 81.1199 88.9198 81.1199C89.2798 81.1199 89.5198 80.8799 89.5198 80.5199C89.5198 80.1599 89.1598 79.9199 88.9198 79.9199Z" fill="#978959"/>
</svg>
