<svg width="111" height="97" viewBox="0 0 111 97" fill="none" xmlns="http://www.w3.org/2000/svg">
<path d="M102.456 17.3199V15.9999H103.776C104.256 15.9999 104.616 15.6399 104.736 15.1599C104.736 14.6799 104.376 14.3199 103.896 14.1999H102.576V12.8799C102.576 12.3999 102.216 12.0399 101.736 11.9199C101.256 11.9199 100.896 12.2799 100.776 12.7599V14.0799H99.4556C98.9756 14.0799 98.6156 14.4399 98.4956 14.9199C98.4956 15.3999 98.8556 15.7599 99.3356 15.8799H100.656V17.1999C100.656 17.6799 101.016 18.0399 101.496 18.1599C102.096 18.1599 102.456 17.7999 102.456 17.3199Z" fill="#978959"/>
<path d="M7.17561 17.4399C7.41561 17.9199 7.89561 18.1599 8.37561 17.9199L9.57561 17.4399L10.0556 18.6399C10.2956 19.1199 10.7756 19.3599 11.1356 19.1199C11.6156 18.8799 11.8556 18.3999 11.6156 18.0399L11.1356 16.8399L12.3356 16.3599C12.8156 16.2399 13.0556 15.6399 12.8156 15.1599C12.6956 14.6799 12.0956 14.4399 11.7356 14.6799L10.5356 15.1599L10.0556 13.9599C9.93561 13.4799 9.33561 13.2399 8.85561 13.4799C8.37561 13.5999 8.13561 14.1999 8.37561 14.5599L8.85561 15.7599L7.65561 16.2399C7.17561 16.4799 7.05561 17.0799 7.17561 17.4399Z" fill="#978959"/>
<path d="M0.935371 70.1201C1.17537 70.6001 1.65537 70.8401 2.13537 70.6001L3.33537 70.1201L3.81537 71.3201C4.05537 71.8001 4.53537 72.0401 4.89537 71.8001C5.37537 71.5601 5.61537 71.0801 5.37537 70.7201L4.89537 69.5201L6.09537 69.0401C6.57537 68.9201 6.81537 68.3201 6.57537 67.8401C6.45537 67.3601 5.85537 67.1201 5.49537 67.3601L4.29537 67.8401L3.81537 66.6401C3.69537 66.1601 3.09537 65.9201 2.61537 66.1601C2.13537 66.2801 1.89537 66.8801 2.13537 67.2401L2.61537 68.4401L1.41537 68.9201C0.935372 69.1601 0.815371 69.6401 0.935371 70.1201Z" fill="#978959"/>
<path d="M78.1558 16.725H69.7183C69.3851 16.725 69.0656 16.5926 68.83 16.3571C68.5944 16.1215 68.462 15.8019 68.462 15.4688C68.462 15.1356 68.5944 14.816 68.83 14.5804C69.0656 14.3449 69.3851 14.2125 69.7183 14.2125H78.1558C78.4889 14.2125 78.8085 14.3449 79.0441 14.5804C79.2797 14.816 79.412 15.1356 79.412 15.4688C79.412 15.8019 79.2797 16.1215 79.0441 16.3571C78.8085 16.5926 78.4889 16.725 78.1558 16.725Z" fill="#978959" stroke="white" stroke-width="0.3"/>
<mask id="path-5-inside-1_157_711" fill="white">
<path d="M92.2183 44.9999C93.3372 44.9999 94.4102 44.5554 95.2014 43.7642C95.9925 42.9731 96.437 41.9 96.437 40.7811V15.4686C96.437 14.6389 96.7745 15.2296 86.1855 4.62643C85.5948 4.03581 86.7058 4.21862 66.9058 4.21862C65.7869 4.21862 64.7138 4.66309 63.9227 5.45426C63.1315 6.24543 62.687 7.31849 62.687 8.43737V14.0624H25.5198C23.7365 14.1463 22.0591 14.9332 20.8547 16.251C19.6502 17.5688 19.0169 19.31 19.0933 21.0936C19.0933 69.328 18.5448 67.6124 20.4151 70.3124H16.2808C15.9078 70.3124 15.5501 70.4605 15.2864 70.7243C15.0227 70.988 14.8745 71.3457 14.8745 71.7186V75.9374C14.8745 78.5481 15.9116 81.0519 17.7577 82.898C19.6037 84.744 22.1075 85.7811 24.7183 85.7811H86.5933C89.204 85.7811 91.7078 84.744 93.5539 82.898C95.3999 81.0519 96.437 78.5481 96.437 75.9374V71.7186C96.437 71.3457 96.2889 70.988 96.0251 70.7243C95.7614 70.4605 95.4037 70.3124 95.0308 70.3124H90.8964C92.6542 67.7671 92.2183 67.9499 92.2183 44.9999ZM65.4995 8.43737C65.4995 8.06441 65.6477 7.70673 65.9114 7.443C66.1751 7.17928 66.5328 7.03112 66.9058 7.03112H84.6105L93.6245 16.0452V40.7811C93.6245 41.1541 93.4764 41.5118 93.2126 41.7755C92.9489 42.0392 92.5912 42.1874 92.2183 42.1874H66.9058C66.5328 42.1874 66.1751 42.0392 65.9114 41.7755C65.6477 41.5118 65.4995 41.1541 65.4995 40.7811V8.43737ZM93.6245 75.9374C93.6245 77.8022 92.8837 79.5906 91.5651 80.9092C90.2465 82.2278 88.4581 82.9686 86.5933 82.9686H24.7183C22.8535 82.9686 21.065 82.2278 19.7464 80.9092C18.4278 79.5906 17.687 77.8022 17.687 75.9374V73.1249H45.812V74.5311C45.812 75.65 46.2565 76.7231 47.0477 77.5142C47.8388 78.3054 48.9119 78.7499 50.0308 78.7499H61.2808C62.3996 78.7499 63.4727 78.3054 64.2639 77.5142C65.055 76.7231 65.4995 75.65 65.4995 74.5311V73.1249H93.6245V75.9374ZM62.687 73.1249V74.5311C62.687 74.9041 62.5389 75.2618 62.2751 75.5255C62.0114 75.7892 61.6537 75.9374 61.2808 75.9374H50.0308C49.6578 75.9374 49.3001 75.7892 49.0364 75.5255C48.7727 75.2618 48.6245 74.9041 48.6245 74.5311V73.1249H62.687ZM25.5198 70.3124C24.4835 70.2262 23.5229 69.735 22.8464 68.9452C22.1698 68.1555 21.8319 67.1309 21.9058 66.0936V21.0936C21.8319 20.0563 22.1698 19.0318 22.8464 18.242C23.5229 17.4523 24.4835 16.9611 25.5198 16.8749H62.687V19.6874H47.2183C46.8453 19.6874 46.4876 19.8355 46.2239 20.0993C45.9602 20.363 45.812 20.7207 45.812 21.0936C45.812 21.4666 45.9602 21.8243 46.2239 22.088C46.4876 22.3517 46.8453 22.4999 47.2183 22.4999H62.687V40.7811C62.687 41.9 63.1315 42.9731 63.9227 43.7642C64.7138 44.5554 65.7869 44.9999 66.9058 44.9999H83.7808V64.6874H59.8745V59.0624C59.8733 56.2596 59.0346 53.5212 57.4661 51.1984C55.8976 48.8757 53.6707 47.0747 51.0714 46.0264C54.7136 43.2139 54.2495 39.5296 54.2495 36.4217C54.2495 34.184 53.3606 32.0379 51.7782 30.4555C50.1959 28.8732 48.0498 27.9842 45.812 27.9842C43.5743 27.9842 41.4281 28.8732 39.8458 30.4555C38.2635 32.0379 37.3745 34.184 37.3745 36.4217C37.3745 39.7967 36.9526 43.1999 40.5526 46.0264C37.9533 47.0747 35.7265 48.8757 34.1579 51.1984C32.5894 53.5212 31.7507 56.2596 31.7495 59.0624V64.6874H27.5308V22.4999H34.562C34.935 22.4999 35.2927 22.3517 35.5564 22.088C35.8201 21.8243 35.9683 21.4666 35.9683 21.0936C35.9683 20.7207 35.8201 20.363 35.5564 20.0993C35.2927 19.8355 34.935 19.6874 34.562 19.6874H26.1245C25.7516 19.6874 25.3939 19.8355 25.1301 20.0993C24.8664 20.363 24.7183 20.7207 24.7183 21.0936V66.0936C24.7183 66.4666 24.8664 66.8243 25.1301 67.088C25.3939 67.3517 25.7516 67.4999 26.1245 67.4999H85.187C85.56 67.4999 85.9177 67.3517 86.1814 67.088C86.4451 66.8243 86.5933 66.4666 86.5933 66.0936V44.9999H89.4058V66.0936C89.4797 67.1309 89.1417 68.1555 88.4651 68.9452C87.7886 69.735 86.828 70.2262 85.7917 70.3124H25.5198ZM45.6714 44.9999C44.218 44.9962 42.8252 44.4172 41.7974 43.3894C40.7697 42.3617 40.1907 40.9689 40.187 39.5155V36.4217C40.187 34.9299 40.7796 33.4992 41.8345 32.4443C42.8894 31.3894 44.3202 30.7967 45.812 30.7967C47.3039 30.7967 48.7346 31.3894 49.7895 32.4443C50.8444 33.4992 51.437 34.9299 51.437 36.4217V39.5155C51.436 40.2594 51.284 40.9954 50.9903 41.6789C50.6966 42.3624 50.2672 42.9791 49.7282 43.4919C49.1892 44.0046 48.5517 44.4026 47.8544 44.6618C47.1571 44.921 46.4144 45.036 45.6714 44.9999V44.9999ZM45.812 47.8124C48.7957 47.8124 51.6572 48.9976 53.767 51.1074C55.8768 53.2172 57.062 56.0787 57.062 59.0624V64.6874H34.562V59.0624C34.562 56.0787 35.7473 53.2172 37.8571 51.1074C39.9668 48.9976 42.8283 47.8124 45.812 47.8124V47.8124Z"/>
</mask>
<path d="M92.2183 44.9999C93.3372 44.9999 94.4102 44.5554 95.2014 43.7642C95.9925 42.9731 96.437 41.9 96.437 40.7811V15.4686C96.437 14.6389 96.7745 15.2296 86.1855 4.62643C85.5948 4.03581 86.7058 4.21862 66.9058 4.21862C65.7869 4.21862 64.7138 4.66309 63.9227 5.45426C63.1315 6.24543 62.687 7.31849 62.687 8.43737V14.0624H25.5198C23.7365 14.1463 22.0591 14.9332 20.8547 16.251C19.6502 17.5688 19.0169 19.31 19.0933 21.0936C19.0933 69.328 18.5448 67.6124 20.4151 70.3124H16.2808C15.9078 70.3124 15.5501 70.4605 15.2864 70.7243C15.0227 70.988 14.8745 71.3457 14.8745 71.7186V75.9374C14.8745 78.5481 15.9116 81.0519 17.7577 82.898C19.6037 84.744 22.1075 85.7811 24.7183 85.7811H86.5933C89.204 85.7811 91.7078 84.744 93.5539 82.898C95.3999 81.0519 96.437 78.5481 96.437 75.9374V71.7186C96.437 71.3457 96.2889 70.988 96.0251 70.7243C95.7614 70.4605 95.4037 70.3124 95.0308 70.3124H90.8964C92.6542 67.7671 92.2183 67.9499 92.2183 44.9999ZM65.4995 8.43737C65.4995 8.06441 65.6477 7.70673 65.9114 7.443C66.1751 7.17928 66.5328 7.03112 66.9058 7.03112H84.6105L93.6245 16.0452V40.7811C93.6245 41.1541 93.4764 41.5118 93.2126 41.7755C92.9489 42.0392 92.5912 42.1874 92.2183 42.1874H66.9058C66.5328 42.1874 66.1751 42.0392 65.9114 41.7755C65.6477 41.5118 65.4995 41.1541 65.4995 40.7811V8.43737ZM93.6245 75.9374C93.6245 77.8022 92.8837 79.5906 91.5651 80.9092C90.2465 82.2278 88.4581 82.9686 86.5933 82.9686H24.7183C22.8535 82.9686 21.065 82.2278 19.7464 80.9092C18.4278 79.5906 17.687 77.8022 17.687 75.9374V73.1249H45.812V74.5311C45.812 75.65 46.2565 76.7231 47.0477 77.5142C47.8388 78.3054 48.9119 78.7499 50.0308 78.7499H61.2808C62.3996 78.7499 63.4727 78.3054 64.2639 77.5142C65.055 76.7231 65.4995 75.65 65.4995 74.5311V73.1249H93.6245V75.9374ZM62.687 73.1249V74.5311C62.687 74.9041 62.5389 75.2618 62.2751 75.5255C62.0114 75.7892 61.6537 75.9374 61.2808 75.9374H50.0308C49.6578 75.9374 49.3001 75.7892 49.0364 75.5255C48.7727 75.2618 48.6245 74.9041 48.6245 74.5311V73.1249H62.687ZM25.5198 70.3124C24.4835 70.2262 23.5229 69.735 22.8464 68.9452C22.1698 68.1555 21.8319 67.1309 21.9058 66.0936V21.0936C21.8319 20.0563 22.1698 19.0318 22.8464 18.242C23.5229 17.4523 24.4835 16.9611 25.5198 16.8749H62.687V19.6874H47.2183C46.8453 19.6874 46.4876 19.8355 46.2239 20.0993C45.9602 20.363 45.812 20.7207 45.812 21.0936C45.812 21.4666 45.9602 21.8243 46.2239 22.088C46.4876 22.3517 46.8453 22.4999 47.2183 22.4999H62.687V40.7811C62.687 41.9 63.1315 42.9731 63.9227 43.7642C64.7138 44.5554 65.7869 44.9999 66.9058 44.9999H83.7808V64.6874H59.8745V59.0624C59.8733 56.2596 59.0346 53.5212 57.4661 51.1984C55.8976 48.8757 53.6707 47.0747 51.0714 46.0264C54.7136 43.2139 54.2495 39.5296 54.2495 36.4217C54.2495 34.184 53.3606 32.0379 51.7782 30.4555C50.1959 28.8732 48.0498 27.9842 45.812 27.9842C43.5743 27.9842 41.4281 28.8732 39.8458 30.4555C38.2635 32.0379 37.3745 34.184 37.3745 36.4217C37.3745 39.7967 36.9526 43.1999 40.5526 46.0264C37.9533 47.0747 35.7265 48.8757 34.1579 51.1984C32.5894 53.5212 31.7507 56.2596 31.7495 59.0624V64.6874H27.5308V22.4999H34.562C34.935 22.4999 35.2927 22.3517 35.5564 22.088C35.8201 21.8243 35.9683 21.4666 35.9683 21.0936C35.9683 20.7207 35.8201 20.363 35.5564 20.0993C35.2927 19.8355 34.935 19.6874 34.562 19.6874H26.1245C25.7516 19.6874 25.3939 19.8355 25.1301 20.0993C24.8664 20.363 24.7183 20.7207 24.7183 21.0936V66.0936C24.7183 66.4666 24.8664 66.8243 25.1301 67.088C25.3939 67.3517 25.7516 67.4999 26.1245 67.4999H85.187C85.56 67.4999 85.9177 67.3517 86.1814 67.088C86.4451 66.8243 86.5933 66.4666 86.5933 66.0936V44.9999H89.4058V66.0936C89.4797 67.1309 89.1417 68.1555 88.4651 68.9452C87.7886 69.735 86.828 70.2262 85.7917 70.3124H25.5198ZM45.6714 44.9999C44.218 44.9962 42.8252 44.4172 41.7974 43.3894C40.7697 42.3617 40.1907 40.9689 40.187 39.5155V36.4217C40.187 34.9299 40.7796 33.4992 41.8345 32.4443C42.8894 31.3894 44.3202 30.7967 45.812 30.7967C47.3039 30.7967 48.7346 31.3894 49.7895 32.4443C50.8444 33.4992 51.437 34.9299 51.437 36.4217V39.5155C51.436 40.2594 51.284 40.9954 50.9903 41.6789C50.6966 42.3624 50.2672 42.9791 49.7282 43.4919C49.1892 44.0046 48.5517 44.4026 47.8544 44.6618C47.1571 44.921 46.4144 45.036 45.6714 44.9999V44.9999ZM45.812 47.8124C48.7957 47.8124 51.6572 48.9976 53.767 51.1074C55.8768 53.2172 57.062 56.0787 57.062 59.0624V64.6874H34.562V59.0624C34.562 56.0787 35.7473 53.2172 37.8571 51.1074C39.9668 48.9976 42.8283 47.8124 45.812 47.8124V47.8124Z" fill="#978959" stroke="white" stroke-width="0.6" mask="url(#path-5-inside-1_157_711)"/>
<path d="M40.187 22.5H41.5933C41.9662 22.5 42.3239 22.3518 42.5876 22.0881C42.8514 21.8244 42.9995 21.4667 42.9995 21.0938C42.9995 20.7208 42.8514 20.3631 42.5876 20.0994C42.3239 19.8357 41.9662 19.6875 41.5933 19.6875H40.187C39.8141 19.6875 39.4564 19.8357 39.1926 20.0994C38.9289 20.3631 38.7808 20.7208 38.7808 21.0938C38.7808 21.4667 38.9289 21.8244 39.1926 22.0881C39.4564 22.3518 39.8141 22.5 40.187 22.5Z" fill="#978959"/>
<path d="M89.4058 23.7562H69.7183C69.3851 23.7562 69.0656 23.6239 68.83 23.3883C68.5944 23.1527 68.462 22.8332 68.462 22.5C68.462 22.1668 68.5944 21.8473 68.83 21.6117C69.0656 21.3761 69.3851 21.2438 69.7183 21.2438H89.4058C89.7389 21.2438 90.0585 21.3761 90.2941 21.6117C90.5297 21.8473 90.662 22.1668 90.662 22.5C90.662 22.8332 90.5297 23.1527 90.2941 23.3883C90.0585 23.6239 89.7389 23.7562 89.4058 23.7562Z" fill="#978959" stroke="white" stroke-width="0.3"/>
<path d="M89.4058 30.7875H69.7183C69.3851 30.7875 69.0656 30.6551 68.83 30.4196C68.5944 30.184 68.462 29.8644 68.462 29.5312C68.462 29.1981 68.5944 28.8785 68.83 28.6429C69.0656 28.4074 69.3851 28.275 69.7183 28.275H89.4058C89.7389 28.275 90.0585 28.4074 90.2941 28.6429C90.5297 28.8785 90.662 29.1981 90.662 29.5312C90.662 29.8644 90.5297 30.184 90.2941 30.4196C90.0585 30.6551 89.7389 30.7875 89.4058 30.7875Z" fill="#978959" stroke="white" stroke-width="0.3"/>
<path d="M89.4058 37.8187H69.7183C69.3851 37.8187 69.0656 37.6864 68.83 37.4508C68.5944 37.2152 68.462 36.8957 68.462 36.5625C68.462 36.2293 68.5944 35.9098 68.83 35.6742C69.0656 35.4386 69.3851 35.3063 69.7183 35.3063H89.4058C89.7389 35.3063 90.0585 35.4386 90.2941 35.6742C90.5297 35.9098 90.662 36.2293 90.662 36.5625C90.662 36.8957 90.5297 37.2152 90.2941 37.4508C90.0585 37.6864 89.7389 37.8187 89.4058 37.8187Z" fill="#978959" stroke="white" stroke-width="0.3"/>
<path d="M95.9232 14.5765L95.9235 14.5769C96.1007 14.7526 96.2215 14.9771 96.2706 15.2217C96.3197 15.4664 96.2948 15.7201 96.1991 15.9506C96.1034 16.181 95.9413 16.3778 95.7333 16.5157C95.5254 16.6536 95.2811 16.7265 95.0316 16.7251L95.0307 16.8751V16.7251H87.9995C86.9204 16.7251 85.8855 16.2964 85.1224 15.5334C84.3594 14.7703 83.9307 13.7354 83.9307 12.6563C83.9307 11.2156 83.9202 10.0401 83.9115 9.07714C83.8979 7.55679 83.889 6.56637 83.9339 5.89882C83.9706 5.35303 84.0425 5.05364 84.158 4.86367C84.2679 4.68299 84.4286 4.58316 84.7086 4.47048C84.7175 4.46691 84.7262 4.46339 84.7348 4.45992C85.0135 4.34763 85.1504 4.29243 85.373 4.36865C85.6284 4.4561 85.9956 4.71941 86.6848 5.35561C87.5156 6.1225 88.7823 7.39903 90.84 9.47282C92.1713 10.8144 93.8336 12.4897 95.9232 14.5765ZM86.6993 8.90807L86.4432 8.65201V9.01414V12.6563C86.4432 13.0691 86.6072 13.4649 86.899 13.7568C87.1909 14.0486 87.5867 14.2126 87.9995 14.2126H91.6417H92.0038L91.7477 13.9565L86.6993 8.90807Z" fill="#978959" stroke="white" stroke-width="0.3"/>
<path d="M71.0157 93.3598C70.8957 92.8798 70.5357 92.5198 70.0557 92.6398L68.8557 92.8798L68.6157 91.6798C68.4957 91.1998 68.1357 90.8398 67.6557 90.9598C67.1757 91.0798 66.8157 91.4398 66.9357 91.9198L67.1757 93.1198L65.9757 93.3598C65.4957 93.4798 65.1357 93.8398 65.2557 94.3198C65.3757 94.7998 65.7357 95.1598 66.2157 95.0398L67.4157 94.7998L67.6557 95.9998C67.7757 96.4798 68.1357 96.8398 68.6157 96.7198C69.0957 96.5998 69.4557 96.2398 69.3357 95.7598L69.0957 94.5598L70.2957 94.3198C70.7757 94.3198 71.1357 93.8398 71.0157 93.3598Z" fill="#978959"/>
<path d="M0.455566 83.3201C0.455566 84.0401 0.935566 84.5201 1.65557 84.5201H5.49557C6.21557 84.5201 6.69557 84.0401 6.69557 83.3201C6.69557 82.6001 6.21557 82.1201 5.49557 82.1201H1.65557C0.935566 82.1201 0.455566 82.6001 0.455566 83.3201Z" fill="#978959"/>
<path d="M110.856 83.3201C110.856 82.6001 110.376 82.1201 109.656 82.1201H103.296C102.576 82.1201 102.096 82.6001 102.096 83.3201C102.096 84.0401 102.576 84.5201 103.296 84.5201H109.656C110.376 84.5201 110.856 84.0401 110.856 83.3201Z" fill="#978959"/>
<path d="M84.5756 71.9199C84.2156 71.9199 83.9756 72.1599 83.9756 72.5199C83.9756 72.8799 84.2156 73.1199 84.5756 73.1199C84.9356 73.1199 85.1756 72.8799 85.1756 72.5199C85.1756 72.1599 84.8156 71.9199 84.5756 71.9199Z" fill="#978959"/>
</svg>
