<svg width="131" height="120" viewBox="0 0 131 120" fill="none" xmlns="http://www.w3.org/2000/svg">
<path d="M112.728 23.88C112.597 23.4 112.077 23.16 111.556 23.28L110.254 23.52L109.993 22.32C109.863 21.84 109.342 21.6 108.821 21.72C108.3 21.84 108.04 22.32 108.17 22.8L108.431 24L107.129 24.24C106.608 24.36 106.347 24.84 106.478 25.32C106.608 25.8 107.129 26.04 107.649 26.04L108.952 25.8L109.212 27C109.342 27.48 109.863 27.72 110.384 27.6C110.905 27.48 111.165 27 111.165 26.52L110.905 25.32L112.207 25.08C112.467 24.84 112.858 24.36 112.728 23.88Z" fill="#978959"/>
<path d="M114.898 56.88C114.768 56.4 114.247 56.16 113.726 56.28L112.424 56.52L112.164 55.32C112.033 54.84 111.513 54.6 110.992 54.72C110.471 54.84 110.21 55.32 110.341 55.8L110.601 57L109.299 57.24C108.778 57.36 108.518 57.84 108.648 58.32C108.778 58.8 109.299 59.04 109.82 59.04L111.122 58.8L111.382 60C111.513 60.48 112.033 60.72 112.554 60.6C113.075 60.48 113.335 60 113.335 59.52L113.075 58.32L114.377 58.08C114.768 57.84 115.028 57.36 114.898 56.88Z" fill="#978959"/>
<path fill-rule="evenodd" clip-rule="evenodd" d="M68.8978 48.3165C72.1222 46.8972 75.7324 46.1025 79.544 46.1025C93.2029 46.1025 104.276 56.307 104.276 68.8949C104.276 81.4828 93.2029 91.6874 79.544 91.6874C65.8852 91.6874 54.8125 81.4828 54.8125 68.8949C54.8125 65.3822 55.6748 62.055 57.2149 59.0835C62.3207 56.8359 66.4591 53.022 68.8978 48.3165Z" fill="white" stroke="#978959" stroke-width="2.2" stroke-linecap="round" stroke-linejoin="round"/>
<path d="M46.5689 61.2975C60.2278 61.2975 71.3005 51.0929 71.3005 38.5051C71.3005 25.9172 60.2278 15.7126 46.5689 15.7126C32.9101 15.7126 21.8374 25.9172 21.8374 38.5051C21.8374 51.0929 32.9101 61.2975 46.5689 61.2975Z" fill="white" stroke="#978959" stroke-width="2.2" stroke-linecap="round" stroke-linejoin="round"/>
<path fill-rule="evenodd" clip-rule="evenodd" d="M79.5303 15.7L104.279 38.5082L79.5303 15.7Z" fill="white"/>
<path d="M79.5303 15.7L104.279 38.5082" stroke="#978959" stroke-width="2.2" stroke-linecap="round" stroke-linejoin="round"/>
<path d="M104.276 30.9075V38.5049H96.0322" stroke="#978959" stroke-width="2.2" stroke-linecap="round" stroke-linejoin="round"/>
<path fill-rule="evenodd" clip-rule="evenodd" d="M46.3948 91.6999L21.646 68.8916L46.3948 91.6999Z" fill="white"/>
<path d="M46.3948 91.6999L21.646 68.8916" stroke="#978959" stroke-width="2.2" stroke-linecap="round" stroke-linejoin="round"/>
<path d="M21.6494 76.4925V68.895H29.8933" stroke="#978959" stroke-width="2.2" stroke-linecap="round" stroke-linejoin="round"/>
<path fill-rule="evenodd" clip-rule="evenodd" d="M84.8038 68.895H74.3751C71.4933 68.895 69.1572 66.7434 69.1572 64.0879C69.1572 61.433 71.4949 59.2808 74.3751 59.2808H84.8038C87.6855 59.2808 90.0217 61.4324 90.0217 64.0879" fill="white"/>
<path d="M84.8038 68.895H74.3751C71.4933 68.895 69.1572 66.7434 69.1572 64.0879C69.1572 61.433 71.4949 59.2808 74.3751 59.2808H84.8038C87.6855 59.2808 90.0217 61.4324 90.0217 64.0879" stroke="#978959" stroke-width="2.2" stroke-linecap="round" stroke-linejoin="round"/>
<path fill-rule="evenodd" clip-rule="evenodd" d="M74.3751 68.895H84.8038C87.6855 68.895 90.0217 71.0467 90.0217 73.7021C90.0217 76.357 87.6839 78.5093 84.8038 78.5093H74.3751C71.4933 78.5093 69.1572 76.3576 69.1572 73.7021" fill="white"/>
<path d="M74.3751 68.895H84.8038C87.6855 68.895 90.0217 71.0467 90.0217 73.7021C90.0217 76.357 87.6839 78.5093 84.8038 78.5093H74.3751C71.4933 78.5093 69.1572 76.3576 69.1572 73.7021" stroke="#978959" stroke-width="2.2" stroke-linecap="round" stroke-linejoin="round"/>
<path fill-rule="evenodd" clip-rule="evenodd" d="M79.7197 55.6753V82.1145V55.6753Z" fill="white"/>
<path d="M79.7197 55.6753V82.1145" stroke="#978959" stroke-width="2.2" stroke-linecap="round" stroke-linejoin="round"/>
<path fill-rule="evenodd" clip-rule="evenodd" d="M55.4519 29.4385C53.3728 27.9769 50.7759 27.1089 47.959 27.1089C41.1296 27.1089 35.5933 32.2111 35.5933 38.5051C35.5933 44.799 41.1296 49.9013 47.959 49.9013C50.776 49.9013 53.3731 49.0332 55.4523 47.5714" fill="white"/>
<path d="M55.4519 29.4385C53.3728 27.9769 50.7759 27.1089 47.959 27.1089C41.1296 27.1089 35.5933 32.2111 35.5933 38.5051C35.5933 44.799 41.1296 49.9013 47.959 49.9013C50.776 49.9013 53.3731 49.0332 55.4523 47.5714" stroke="#978959" stroke-width="2.2" stroke-linecap="round" stroke-linejoin="round"/>
<path fill-rule="evenodd" clip-rule="evenodd" d="M31.6357 36.2258H55.378H31.6357Z" fill="white"/>
<path d="M31.6357 36.2258H55.378" stroke="#978959" stroke-width="2.2" stroke-linecap="round" stroke-linejoin="round"/>
<path fill-rule="evenodd" clip-rule="evenodd" d="M31.6357 40.7842H52.9049H31.6357Z" fill="white"/>
<path d="M31.6357 40.7842H52.9049" stroke="#978959" stroke-width="2.2" stroke-linecap="round" stroke-linejoin="round"/>
<path d="M11.251 34.3602C11.7718 34.4802 12.2927 34.1202 12.4229 33.6402L12.6833 32.4402L13.9854 32.6802C14.5062 32.8002 15.0271 32.4402 15.1573 31.9602C15.2875 31.4802 14.8969 31.0002 14.376 30.8802L13.0739 30.6402L13.3344 29.4402C13.4646 28.9602 13.0739 28.4802 12.5531 28.3602C12.0323 28.2402 11.5114 28.6002 11.3812 29.0802L11.1208 30.2802L9.8187 30.0402C9.29787 29.9202 8.77703 30.2802 8.64682 30.7602C8.51661 31.2402 8.90724 31.7202 9.42807 31.8402L10.7302 32.0802L10.4697 33.4002C10.3395 33.8802 10.7302 34.3602 11.251 34.3602Z" fill="#978959"/>
<path d="M62.1195 95.72C61.5987 95.6 61.0778 95.96 60.9476 96.44L60.6872 97.64L59.3851 97.4C58.8643 97.28 58.3434 97.64 58.2132 98.12C58.083 98.6 58.4736 99.08 58.9945 99.2L60.2966 99.44L60.0362 100.64C59.9059 101.12 60.2966 101.6 60.8174 101.72C61.3382 101.84 61.8591 101.48 61.9893 101L62.2497 99.8L63.5518 100.04C64.0726 100.16 64.5935 99.8 64.7237 99.32C64.8539 98.84 64.4633 98.36 63.9424 98.24L62.6403 98L62.9008 96.8C62.9008 96.32 62.6403 95.84 62.1195 95.72Z" fill="#978959"/>
</svg>
