<svg width="131" height="120" viewBox="0 0 131 120" fill="none" xmlns="http://www.w3.org/2000/svg">
<path d="M112.665 23.8798C112.535 23.3998 112.014 23.1598 111.493 23.2798L110.191 23.5198L109.931 22.3198C109.8 21.8398 109.28 21.5998 108.759 21.7198C108.238 21.8398 107.978 22.3198 108.108 22.7998L108.368 23.9998L107.066 24.2398C106.545 24.3598 106.285 24.8398 106.415 25.3198C106.545 25.7998 107.066 26.0398 107.587 26.0398L108.889 25.7998L109.149 26.9998C109.28 27.4798 109.8 27.7198 110.321 27.5998C110.842 27.4798 111.103 26.9998 111.103 26.5198L110.842 25.3198L112.144 25.0798C112.405 24.8398 112.795 24.3598 112.665 23.8798Z" fill="#978959"/>
<path d="M109.41 56.8798C109.279 56.3998 108.759 56.1598 108.238 56.2798L106.936 56.5198L106.675 55.3198C106.545 54.8398 106.024 54.5998 105.503 54.7198C104.983 54.8398 104.722 55.3198 104.852 55.7998L105.113 56.9998L103.811 57.2398C103.29 57.3598 103.029 57.8398 103.16 58.3198C103.29 58.7998 103.811 59.0398 104.332 59.0398L105.634 58.7998L105.894 59.9998C106.024 60.4798 106.545 60.7198 107.066 60.5998C107.587 60.4798 107.847 59.9998 107.847 59.5198L107.587 58.3198L108.889 58.0798C109.279 57.8398 109.54 57.3598 109.41 56.8798Z" fill="#978959"/>
<path d="M15.5288 33.3599C16.0497 33.4799 16.5705 33.1199 16.7007 32.6399L16.9611 31.4399L18.2632 31.6799C18.7841 31.7999 19.3049 31.4399 19.4351 30.9599C19.5653 30.4799 19.1747 29.9999 18.6539 29.8799L17.3518 29.6399L17.6122 28.4399C17.7424 27.9599 17.3518 27.4799 16.8309 27.3599C16.3101 27.2399 15.7893 27.5999 15.659 28.0799L15.3986 29.2799L14.0965 29.0399C13.5757 28.9199 13.0549 29.2799 12.9247 29.7599C12.7944 30.2399 13.1851 30.7199 13.7059 30.8399L15.008 31.0799L14.7476 32.3999C14.6174 32.8799 15.008 33.3599 15.5288 33.3599Z" fill="#978959"/>
<path d="M77.2479 93.7198C76.7271 93.5998 76.2062 93.9598 76.076 94.4398L75.8156 95.6398L74.5135 95.3998C73.9927 95.2798 73.4719 95.6398 73.3416 96.1198C73.2114 96.5998 73.6021 97.0798 74.1229 97.1998L75.425 97.4398L75.1646 98.6398C75.0344 99.1198 75.425 99.5998 75.9458 99.7198C76.4667 99.8398 76.9875 99.4798 77.1177 98.9998L77.3781 97.7998L78.6802 98.0398C79.2011 98.1598 79.7219 97.7998 79.8521 97.3198C79.9823 96.8398 79.5917 96.3598 79.0709 96.2398L77.7688 95.9998L78.0292 94.7998C78.0292 94.3198 77.7688 93.8398 77.2479 93.7198Z" fill="#978959"/>
<path d="M6.93499 92.6399C19.6955 92.6399 20.0861 92.6399 20.4768 92.6399C21.258 92.6399 21.7788 92.1599 21.7788 91.4399C21.7788 90.7199 21.258 90.2399 20.4768 90.2399H15.9194V87.7199C15.9194 86.1599 17.3517 84.8399 19.0445 84.8399C27.1174 84.8399 34.0185 84.8399 42.3519 84.8399C44.0446 84.8399 45.4769 86.1599 45.4769 87.7199V90.2399C39.8779 90.2399 55.6333 90.2399 27.7685 90.2399C26.9872 90.2399 26.4664 90.7199 26.4664 91.4399C26.4664 92.1599 26.9872 92.6399 27.7685 92.6399C92.3523 92.7599 91.8314 92.7599 91.9616 92.7599C92.0919 92.7599 92.2221 92.7599 92.3523 92.6399H94.1752C94.1752 92.6399 94.1752 92.6399 94.3054 92.6399H95.3471C96.1283 92.6399 96.6492 92.1599 96.6492 91.4399C96.6492 90.7199 96.1283 90.2399 95.3471 90.2399C93.3939 90.2399 102.509 90.2399 76.0761 90.2399V70.4399C76.0761 69.7199 76.7272 69.1199 77.5084 69.1199H113.837C114.618 69.1199 115.269 69.7199 115.269 70.4399V90.2399H102.769C101.988 90.2399 101.467 90.7199 101.467 91.4399C101.467 92.1599 101.988 92.6399 102.769 92.6399H103.68C103.68 92.6399 103.68 92.6399 103.811 92.6399H124.254C125.035 92.6399 125.556 92.1599 125.556 91.4399C125.556 90.7199 125.035 90.2399 124.254 90.2399H117.873V70.3199C117.873 68.2799 116.05 66.5999 113.837 66.5999H95.7377V26.3999C95.7377 23.0399 92.8731 20.3999 89.2272 20.3999H34.1487C30.5029 20.3999 27.6383 23.0399 27.6383 26.3999V58.6799C23.6018 60.2399 21.5184 64.3199 22.8205 68.1599C24.1226 71.8799 24.7737 75.2399 25.0341 78.4799L25.1643 82.5599H19.1747C16.0496 82.5599 13.4455 84.9599 13.4455 87.8399V90.3599H7.0652C6.28394 90.3599 5.7631 90.8399 5.7631 91.5599C5.6329 92.1599 6.15373 92.6399 6.93499 92.6399ZM73.4719 75.1199H36.7529C37.0133 73.1999 37.5342 71.2799 38.055 69.5999H73.4719C73.3417 69.8399 73.3417 70.0799 73.3417 70.4399L73.4719 75.1199ZM36.4925 77.6399C36.4925 77.5199 36.4925 77.5199 36.4925 77.6399C36.6227 77.5199 36.6227 77.5199 36.7529 77.5199H73.4719V83.0399H44.9561C44.1748 82.6799 43.3936 82.4399 42.4821 82.4399H36.4925V77.6399ZM48.0811 90.2399V87.7199C48.0811 86.8799 47.8207 86.0399 47.4301 85.4399H73.3417V90.2399H48.0811ZM34.1487 22.7999H89.097C91.3106 22.7999 93.0033 24.3599 93.0033 26.3999V66.7199H77.5084C76.8574 66.7199 76.2063 66.8399 75.6855 67.1999H38.8363C38.9665 66.7199 38.9665 66.2399 38.9665 65.7599C38.9665 64.3199 38.5758 62.8799 37.6644 61.6799H86.3626C87.0137 61.6799 87.6647 61.0799 87.6647 60.4799C87.6647 59.7599 87.0137 59.2799 86.3626 59.2799H36.7529C36.3623 59.2799 36.1019 59.3999 35.8414 59.6399C34.2789 58.5599 32.3258 57.9599 30.2424 58.0799V26.3999C30.2424 24.3599 31.9352 22.7999 34.1487 22.7999ZM27.5081 78.3599C27.3778 74.8799 26.5966 71.2799 25.2945 67.3199C24.2528 64.1999 26.3362 61.0799 29.5914 60.4799C33.2373 59.8799 36.3623 62.3999 36.3623 65.6399C36.3623 66.2399 36.2321 66.7199 36.1019 67.3199C35.1904 70.0799 34.0185 73.6799 33.8883 77.5199L33.6279 82.4399H27.7685L27.5081 78.3599Z" fill="#978959"/>
<path d="M60.1908 45.8399H86.4931C87.1441 45.8399 87.7951 45.2399 87.7951 44.6399C87.7951 44.0399 87.1441 43.4399 86.4931 43.4399H60.1908C59.4095 43.4399 58.8887 44.0399 58.8887 44.6399C58.8887 45.2399 59.4095 45.8399 60.1908 45.8399Z" fill="#978959"/>
<path d="M60.1908 29.9999H86.4931C87.1441 29.9999 87.7951 29.5199 87.7951 28.7999C87.7951 28.1999 87.1441 27.5999 86.4931 27.5999H60.1908C59.4095 27.5999 58.8887 28.1999 58.8887 28.7999C58.8887 29.3999 59.4095 29.9999 60.1908 29.9999Z" fill="#978959"/>
<path d="M36.7528 53.7599H86.4927C87.1438 53.7599 87.7948 53.2799 87.7948 52.5599C87.7948 51.8399 87.1438 51.3599 86.4927 51.3599H36.7528C35.9715 51.3599 35.4507 51.8399 35.4507 52.5599C35.4507 53.2799 35.9715 53.7599 36.7528 53.7599Z" fill="#978959"/>
<path d="M60.1908 37.92H86.4931C87.1441 37.92 87.7951 37.44 87.7951 36.72C87.7951 36 87.1441 35.52 86.4931 35.52H60.1908C59.4095 35.52 58.8887 36 58.8887 36.72C58.8887 37.32 59.4095 37.92 60.1908 37.92Z" fill="#978959"/>
<path d="M38.0552 45.24H51.4667C52.5084 45.24 53.4199 44.4 53.4199 43.44V30C53.4199 29.04 52.5084 28.2 51.4667 28.2H38.0552C37.0135 28.2 36.1021 29.04 36.1021 30V43.44C36.1021 44.4 37.0135 45.24 38.0552 45.24ZM37.4041 30C37.4041 29.64 37.6646 29.4 38.0552 29.4H51.4667C51.8574 29.4 52.1178 29.64 52.1178 30V43.44C52.1178 43.8 51.8574 44.04 51.4667 44.04H38.0552C37.6646 44.04 37.4041 43.8 37.4041 43.44V30Z" fill="#978959"/>
<path d="M44.8261 43.4398C46.6491 43.4398 48.3418 42.8398 49.6439 41.6398C49.9043 41.3998 50.0345 41.0398 49.9043 40.6798C49.5137 39.7198 48.7324 38.9998 47.8209 38.3998C48.472 37.6798 48.8626 36.8398 48.8626 35.8798C48.8626 34.6798 48.3418 33.5998 47.3001 32.8798C46.2584 32.1598 45.0865 31.9198 43.7845 32.1598C42.2219 32.5198 41.0501 33.5998 40.6594 35.0398C40.399 36.2398 40.7896 37.5598 41.5709 38.3998C40.6594 38.9998 40.0084 39.7198 39.4875 40.6798C39.3573 41.0398 39.3573 41.3998 39.748 41.6398C41.1803 42.8398 43.0032 43.4398 44.8261 43.4398ZM42.873 39.2398C43.1334 39.1198 43.2636 38.8798 43.3938 38.6398C43.3938 38.3998 43.2636 38.1598 43.1334 37.9198C42.2219 37.3198 41.9615 36.3598 42.0917 35.2798C42.3521 34.3198 43.1334 33.4798 44.1751 33.3598C45.0865 33.1198 45.8678 33.3598 46.6491 33.8398C47.3001 34.3198 47.6907 35.0398 47.6907 35.8798C47.6907 36.7198 47.3001 37.4398 46.6491 37.9198C46.3886 38.0398 46.2584 38.3998 46.3886 38.6398C46.3886 38.8798 46.6491 39.1198 46.9095 39.2398C47.6907 39.5998 48.3418 40.1998 48.7324 40.9198C46.6491 42.5998 43.2636 42.5998 41.1803 40.9198C41.4407 40.1998 42.0917 39.5998 42.873 39.2398Z" fill="#978959"/>
<path d="M110.321 87.9598C110.321 86.9998 110.712 86.1598 111.233 85.5598C111.493 85.3198 111.884 85.0798 112.405 85.0798C112.795 85.0798 113.056 84.8398 113.056 84.4798V74.7598C113.056 74.3998 112.795 74.1598 112.405 74.1598C111.233 74.1598 110.321 72.8398 110.321 71.2798C110.321 71.1598 110.191 70.9198 110.191 70.7998C110.061 70.7998 109.931 70.7998 109.67 70.7998C91.7013 70.7998 98.6024 70.7998 81.4147 70.7998C81.0241 70.7998 80.7637 71.0398 80.7637 71.3998C80.7637 72.3598 80.3731 73.1998 79.8522 73.7998C79.5918 74.0398 79.2012 74.2798 78.6803 74.2798C78.2897 74.2798 78.0293 74.5198 78.0293 74.8798V84.5998C78.0293 84.9598 78.2897 85.1998 78.6803 85.1998C79.2012 85.1998 79.722 85.4398 80.1126 85.9198C80.5033 86.5198 80.7637 87.2398 80.7637 87.9598C80.7637 88.3198 81.0241 88.5598 81.4147 88.5598H109.67C110.061 88.5598 110.321 88.3198 110.321 87.9598ZM82.0658 87.3598C81.9356 86.5198 81.6752 85.7998 81.1543 85.1998C80.6335 84.5998 79.9824 84.1198 79.3314 83.9998V75.3598C79.8522 75.2398 80.3731 74.9998 80.7637 74.6398C81.4147 74.0398 81.9356 73.0798 82.0658 71.9998H109.149C109.41 73.6798 110.451 74.9998 111.884 75.3598V83.9998C111.363 84.1198 110.842 84.3598 110.451 84.7198C109.8 85.3198 109.28 86.2798 109.149 87.3598H82.0658Z" fill="#978959"/>
<path d="M86.753 76.0798C85.7114 76.0798 84.6697 76.4398 83.8884 77.0398C82.3259 78.4798 82.1957 80.7598 83.7582 82.1998C84.5395 82.9198 85.4509 83.3998 86.6228 83.3998C88.7062 83.3998 90.5291 81.8398 90.5291 79.7998C90.5291 78.8398 90.1385 77.8798 89.4874 77.1598C88.8364 76.5598 87.9249 76.1998 86.753 76.0798ZM88.576 81.5998C88.0551 82.0798 87.4041 82.3198 86.6228 82.3198C85.1905 82.3198 84.0186 81.1198 84.0186 79.7998C84.0186 78.4798 85.1905 77.3998 86.6228 77.3998C88.1853 77.3998 89.3572 78.5998 89.227 79.9198C89.3572 80.5198 89.0968 81.1198 88.576 81.5998Z" fill="#978959"/>
<path d="M104.592 75.8398C102.379 75.7198 100.556 77.3998 100.556 79.4398C100.556 81.4798 102.248 83.1598 104.462 83.1598C106.545 83.1598 108.368 81.5998 108.368 79.5598C108.498 77.6398 106.806 75.9598 104.592 75.8398ZM106.285 81.3598C105.764 81.8398 105.113 82.0798 104.332 82.0798C102.899 82.0798 101.728 80.8798 101.728 79.5598C101.728 78.2398 102.899 77.1598 104.332 77.1598C105.894 77.1598 107.066 78.3598 106.936 79.6798C107.066 80.2798 106.806 80.8798 106.285 81.3598Z" fill="#978959"/>
<path d="M97.1701 79.68C96.6493 79.44 95.9982 79.32 95.868 79.32V77.04C95.9982 77.04 96.6493 77.04 97.4306 77.28C97.691 77.4 97.8212 77.28 97.9514 77.16C98.0816 77.04 98.0816 76.92 98.0816 76.92C98.0816 76.68 97.9514 76.56 97.8212 76.56C96.9097 76.2 96.1285 76.32 95.9982 76.2V75.48C95.9982 75.36 95.868 75.24 95.7378 75.24C95.6076 75.24 95.6076 75.24 95.6076 75.36L95.4774 75.48V76.2H95.217C93.6545 76.32 93.0034 77.28 93.0034 78.24C93.0034 78.6 93.1336 78.96 93.3941 79.2C93.6545 79.44 93.9149 79.68 94.3055 79.8C94.8264 80.04 95.4774 80.16 95.6076 80.16V82.32C95.4774 82.32 94.5659 82.32 93.6545 81.96C93.6545 81.96 93.5243 81.96 93.3941 81.96C93.1336 81.96 93.0034 82.2 93.0034 82.44C93.0034 82.56 93.0034 82.56 93.1336 82.68C93.1336 82.8 93.2638 82.8 93.3941 82.8C94.5659 83.28 95.4774 83.28 95.6076 83.28V84C95.6076 84.12 95.6076 84.12 95.7378 84.12C95.7378 84.12 95.868 84.24 95.868 84.12C95.9982 84.12 95.9982 84.12 95.9982 84L96.1285 83.88V83.16H96.3889C96.7795 83.16 97.1701 83.04 97.4306 82.92C98.2118 82.56 98.6024 81.96 98.6024 81.24C98.6024 80.76 98.4722 80.4 98.2118 80.16C97.8212 79.92 97.4306 79.8 97.1701 79.68ZM94.1753 78.84C93.9149 78.72 93.7847 78.48 93.7847 78.12C93.7847 77.76 93.9149 77.52 94.1753 77.4C94.4357 77.28 94.6961 77.16 94.9566 77.04H95.217V79.2C95.217 79.08 94.5659 78.96 94.1753 78.84ZM96.1285 82.32H95.868V80.16C95.9982 80.16 96.6493 80.28 97.0399 80.52C97.3003 80.64 97.4306 80.88 97.4306 81.12C97.4306 81.84 97.0399 82.2 96.1285 82.32Z" fill="#978959"/>
</svg>
