<svg width="120" height="120" viewBox="0 0 120 120" fill="none" xmlns="http://www.w3.org/2000/svg">
<path d="M106.8 25.3199V23.9999H108.12C108.6 23.9999 108.96 23.6399 109.08 23.1599C109.08 22.6799 108.72 22.3199 108.24 22.1999H106.92V20.8799C106.92 20.3999 106.56 20.0399 106.08 19.9199C105.6 19.9199 105.24 20.2799 105.12 20.7599V22.0799H103.8C103.32 22.0799 102.96 22.4399 102.84 22.9199C102.84 23.3999 103.2 23.7599 103.68 23.8799H105V25.1999C105 25.6799 105.36 26.0399 105.84 26.1599C106.44 26.1599 106.8 25.7999 106.8 25.3199Z" fill="#978959"/>
<path d="M11.5198 25.4399C11.7598 25.9199 12.2398 26.1599 12.7198 25.9199L13.9198 25.4399L14.3998 26.6399C14.6398 27.1199 15.1198 27.3599 15.4798 27.1199C15.9598 26.8799 16.1998 26.3999 15.9598 26.0399L15.4798 24.8399L16.6798 24.3599C17.1598 24.2399 17.3998 23.6399 17.1598 23.1599C17.0398 22.6799 16.4398 22.4399 16.0798 22.6799L14.8798 23.1599L14.3998 21.9599C14.2798 21.4799 13.6798 21.2399 13.1998 21.4799C12.7198 21.5999 12.4798 22.1999 12.7198 22.5599L13.1998 23.7599L11.9998 24.2399C11.5198 24.4799 11.3998 25.0799 11.5198 25.4399Z" fill="#978959"/>
<path d="M5.27961 78.1198C5.51961 78.5998 5.99961 78.8398 6.47961 78.5998L7.67961 78.1198L8.15961 79.3198C8.39961 79.7998 8.87961 80.0398 9.23961 79.7998C9.71961 79.5598 9.95961 79.0798 9.71961 78.7198L9.23961 77.5198L10.4396 77.0398C10.9196 76.9198 11.1596 76.3198 10.9196 75.8398C10.7996 75.3598 10.1996 75.1198 9.83961 75.3598L8.63961 75.8398L8.15961 74.6398C8.03961 74.1598 7.43961 73.9198 6.95961 74.1598C6.47961 74.2798 6.23961 74.8798 6.47961 75.2398L6.95961 76.4398L5.75961 76.9198C5.27961 77.1598 5.15961 77.6398 5.27961 78.1198Z" fill="#978959"/>
<path d="M75.3599 96.36C75.2399 95.88 74.8799 95.52 74.3999 95.64L73.1999 95.88L72.9599 94.68C72.8399 94.2 72.4799 93.84 71.9999 93.96C71.5199 94.08 71.1599 94.44 71.2799 94.92L71.5199 96.12L70.3199 96.36C69.8399 96.48 69.4799 96.84 69.5999 97.32C69.7199 97.8 70.0799 98.16 70.5599 98.04L71.7599 97.8L71.9999 99C72.1199 99.48 72.4799 99.84 72.9599 99.72C73.4399 99.6 73.7999 99.24 73.6799 98.76L73.4399 97.56L74.6399 97.32C75.1199 97.32 75.4799 96.84 75.3599 96.36Z" fill="#978959"/>
<path d="M4.7998 91.3199C4.7998 92.0399 5.2798 92.5199 5.9998 92.5199H9.8398C10.5598 92.5199 11.0398 92.0399 11.0398 91.3199C11.0398 90.5999 10.5598 90.1199 9.8398 90.1199H5.9998C5.2798 90.1199 4.7998 90.5999 4.7998 91.3199Z" fill="#978959"/>
<path d="M115.2 91.3199C115.2 90.5999 114.72 90.1199 114 90.1199H107.64C106.92 90.1199 106.44 90.5999 106.44 91.3199C106.44 92.0399 106.92 92.5199 107.64 92.5199H114C114.72 92.5199 115.2 92.0399 115.2 91.3199Z" fill="#978959"/>
<path d="M36.9596 45.84H73.7996C74.5196 45.84 75.1196 45.2399 75.1196 44.5199C75.1196 43.7999 74.5196 43.2 73.7996 43.2H36.9596C36.2396 43.2 35.6396 43.7999 35.6396 44.5199C35.6396 45.2399 36.2396 45.84 36.9596 45.84Z" fill="#978959"/>
<path d="M36.9596 55.68H73.7996C74.5196 55.68 75.1196 55.08 75.1196 54.36C75.1196 53.64 74.5196 53.04 73.7996 53.04H36.9596C36.2396 53.04 35.6396 53.64 35.6396 54.36C35.6396 55.08 36.2396 55.68 36.9596 55.68Z" fill="#978959"/>
<path d="M36.7199 36.6C36.8399 36.48 36.8399 36.36 36.8399 36.24V34.2H39.2399V36.24C39.2399 36.36 39.2399 36.48 39.3599 36.6C39.4799 36.72 39.5999 36.72 39.7199 36.72C39.8399 36.72 39.9599 36.72 40.0799 36.6C40.1999 36.48 40.1999 36.36 40.1999 36.24V31.08C40.1999 30.96 40.1999 30.84 40.0799 30.72C39.8399 30.48 39.5999 30.48 39.3599 30.72C39.2399 30.84 39.2399 30.96 39.2399 31.08V33.12H36.8399V31.08C36.8399 30.96 36.8399 30.84 36.7199 30.72C36.4799 30.48 36.2399 30.48 35.9999 30.72C35.8799 30.84 35.8799 30.96 35.8799 31.08V36.24C35.8799 36.36 35.8799 36.48 35.9999 36.6C36.1199 36.84 36.4799 36.84 36.7199 36.6Z" fill="#978959"/>
<path d="M41.8799 36.48C42.2399 36.72 42.5999 36.84 42.9599 36.84C43.3199 36.84 43.6799 36.72 44.0399 36.48C44.3999 36.24 44.6399 36 44.7599 35.64C44.8799 35.28 44.9999 34.92 44.9999 34.44C44.9999 33.96 44.8799 33.6 44.7599 33.24C44.6399 32.88 44.3999 32.64 44.0399 32.4C43.6799 32.16 43.3199 32.04 42.9599 32.04C42.5999 32.04 42.2399 32.16 41.8799 32.4C41.5199 32.64 41.2799 32.88 41.1599 33.24C41.0399 33.6 40.9199 33.96 40.9199 34.44C40.9199 34.92 41.0399 35.28 41.1599 35.64C41.3999 36 41.6399 36.36 41.8799 36.48ZM42.1199 33.6C42.2399 33.36 42.3599 33.24 42.4799 33.12C42.5999 33 42.8399 33 42.9599 33C43.0799 33 43.3199 33 43.4399 33.12C43.5599 33.24 43.6799 33.36 43.7999 33.6C43.9199 33.84 43.9199 34.08 43.9199 34.32C43.9199 34.68 43.9199 34.92 43.7999 35.16C43.6799 35.4 43.5599 35.52 43.4399 35.64C43.0799 35.88 42.7199 35.88 42.4799 35.64C42.3599 35.52 42.2399 35.4 42.1199 35.16C41.9999 35.04 41.9999 34.8 41.9999 34.44C41.9999 34.08 41.9999 33.84 42.1199 33.6Z" fill="#978959"/>
<path d="M46.5596 36.5999C46.6796 36.4799 46.6796 36.3599 46.6796 36.2399V33.8399C46.7996 33.5999 46.9196 33.4799 47.0396 33.3599C47.1596 33.2399 47.3996 33.2399 47.5196 33.2399C47.7596 33.2399 47.8796 33.2399 47.9996 33.3599C48.1196 33.4799 48.1196 33.7199 48.1196 34.0799V36.3599C48.1196 36.4799 48.1196 36.5999 48.2396 36.7199C48.4796 36.9599 48.7196 36.9599 48.9596 36.7199C49.0796 36.5999 49.0796 36.4799 49.0796 36.3599V33.9599C49.1996 33.7199 49.3196 33.5999 49.4396 33.4799C49.5596 33.3599 49.7996 33.3599 49.9196 33.3599C50.1596 33.3599 50.2796 33.3599 50.3996 33.4799C50.5196 33.5999 50.5196 33.8399 50.5196 34.1999V36.4799C50.5196 36.5999 50.5196 36.7199 50.6396 36.8399C50.7596 36.9599 50.8796 36.9599 50.9996 36.9599C51.1196 36.9599 51.2396 36.9599 51.3596 36.8399C51.4796 36.7199 51.4796 36.5999 51.4796 36.4799V34.0799C51.4796 33.8399 51.4796 33.4799 51.3596 33.2399C51.2396 32.9999 51.1196 32.7599 50.8796 32.5199C50.6396 32.2799 50.3996 32.2799 50.0396 32.2799C49.4396 32.2799 49.0796 32.5199 48.7196 32.9999C48.5996 32.8799 48.4796 32.7599 48.3596 32.6399C48.1196 32.3999 47.8796 32.3999 47.5196 32.3999C47.1596 32.3999 46.9196 32.5199 46.6796 32.6399C46.7996 32.3999 46.6796 32.3999 46.6796 32.5199C46.6796 32.3999 46.5596 32.3999 46.5596 32.2799C46.3196 32.0399 46.0796 32.0399 45.8396 32.2799C45.7196 32.3999 45.5996 32.5199 45.5996 32.6399V36.2399C45.5996 36.3599 45.5996 36.4799 45.7196 36.5999C45.9596 36.8399 46.3196 36.8399 46.5596 36.5999Z" fill="#978959"/>
<path d="M54.2396 36.8399C54.5996 36.8399 54.8396 36.8399 54.9596 36.7199C55.1996 36.5999 55.3196 36.5999 55.5596 36.4799C55.7996 36.3599 55.7996 36.1199 55.7996 35.9999C55.7996 35.8799 55.7996 35.7599 55.6796 35.6399C55.5596 35.5199 55.3196 35.3999 55.1996 35.5199C55.0796 35.6399 54.9596 35.6399 54.8396 35.6399C54.7196 35.6399 54.4796 35.7599 54.3596 35.7599C53.9996 35.7599 53.7596 35.6399 53.5196 35.5199C53.3996 35.3999 53.2796 35.1599 53.1596 34.9199H55.4396C55.5596 34.9199 55.6796 34.9199 55.7996 34.7999C55.9196 34.6799 55.9196 34.5599 55.9196 34.4399C55.9196 33.7199 55.6796 32.8799 55.0796 32.5199C54.8396 32.2799 54.4796 32.1599 53.9996 32.1599C53.5196 32.1599 53.1596 32.2799 52.9196 32.5199C52.6796 32.7599 52.4396 32.9999 52.3196 33.3599C52.1996 33.7199 52.0796 34.0799 52.0796 34.5599C52.0796 35.2799 52.3196 35.8799 52.6796 36.2399C53.0396 36.5999 53.6396 36.8399 54.2396 36.8399ZM53.3996 33.4799C53.5196 33.3599 53.6396 33.2399 53.7596 33.1199C53.9996 32.9999 54.3596 32.9999 54.5996 33.1199C54.7196 33.2399 54.8396 33.3599 54.9596 33.4799C55.0796 33.5999 55.0796 33.7199 55.0796 33.9599H53.2796C53.2796 33.7199 53.2796 33.5999 53.3996 33.4799Z" fill="#978959"/>
<path d="M59.2797 36.7199H61.9197C62.0397 36.7199 62.1597 36.7199 62.2797 36.5999C62.3997 36.4799 62.3997 36.3599 62.3997 36.2399C62.3997 36.1199 62.3997 35.9999 62.2797 35.8799C62.1597 35.7599 62.0397 35.7599 61.9197 35.7599H59.6397V31.1999C59.6397 31.0799 59.6397 30.9599 59.5197 30.8399C59.2797 30.5999 59.0397 30.5999 58.7997 30.8399C58.6797 30.9599 58.6797 31.0799 58.6797 31.1999V35.9999C58.6797 36.2399 58.6797 36.3599 58.7997 36.4799C58.9197 36.5999 59.1597 36.7199 59.2797 36.7199Z" fill="#978959"/>
<path d="M64.56 36.84C65.4 36.84 66 36.36 66.36 35.64C66.48 35.28 66.6 34.92 66.6 34.44C66.6 33.96 66.48 33.6 66.36 33.24C66 32.52 65.4 32.04 64.56 32.04C63.72 32.04 63.12 32.52 62.76 33.24C62.64 33.6 62.52 33.96 62.52 34.44C62.52 34.92 62.64 35.28 62.76 35.64C63.12 36.36 63.72 36.84 64.56 36.84ZM63.72 33.6C63.84 33.36 63.96 33.24 64.08 33.12C64.2 33 64.44 33 64.56 33C64.68 33 64.92 33 65.04 33.12C65.16 33.24 65.28 33.36 65.4 33.6C65.52 33.84 65.52 34.08 65.52 34.32C65.52 34.68 65.52 34.92 65.4 35.16C65.28 35.4 65.16 35.52 65.04 35.64C64.68 35.88 64.32 35.88 64.08 35.64C63.96 35.52 63.84 35.4 63.72 35.16C63.6 34.92 63.6 34.68 63.6 34.32C63.48 34.08 63.6 33.84 63.72 33.6Z" fill="#978959"/>
<path d="M67.44 34.3199C67.08 34.5599 66.96 34.9199 66.96 35.3999C66.96 35.6399 67.08 35.8799 67.2 36.1199C67.32 36.3599 67.44 36.4799 67.68 36.5999C67.92 36.7199 68.16 36.7199 68.4 36.7199C68.88 36.7199 69.24 36.5999 69.6 36.2399C69.6 36.3599 69.72 36.3599 69.72 36.4799C69.96 36.7199 70.2 36.7199 70.44 36.4799C70.56 36.3599 70.56 36.2399 70.56 36.1199V33.7199C70.56 33.3599 70.56 33.1199 70.44 32.8799C70.32 32.6399 70.08 32.3999 69.84 32.1599C69.6 32.0399 69.24 31.9199 68.88 31.9199C68.4 31.9199 67.92 32.0399 67.56 32.2799C67.32 32.3999 67.32 32.5199 67.32 32.7599C67.32 32.8799 67.32 32.9999 67.44 33.1199C67.56 33.2399 67.68 33.2399 67.8 33.2399H67.92C68.04 33.1199 68.28 33.1199 68.4 33.1199C68.52 33.1199 68.64 33.1199 68.88 33.1199C69.12 33.1199 69.36 33.2399 69.48 33.3599C69.6 33.4799 69.6 33.7199 69.72 33.9599H69C68.16 33.8399 67.68 33.9599 67.44 34.3199ZM69.48 34.7999V35.2799C69.36 35.3999 69.24 35.5199 69 35.6399C68.88 35.7599 68.64 35.7599 68.4 35.7599C68.16 35.7599 68.04 35.7599 67.92 35.6399C67.8 35.5199 67.8 35.3999 67.8 35.2799C67.8 35.1599 67.8 34.7999 68.76 34.7999H69.48Z" fill="#978959"/>
<path d="M72.1198 36.6C72.2398 36.48 72.2398 36.36 72.2398 36.24V33.84C72.3598 33.6 72.5998 33.48 72.7198 33.36C72.8398 33.24 73.0798 33.12 73.3198 33.12C73.5598 33.12 73.9198 33.24 73.9198 33.96V36.24C73.9198 36.36 73.9198 36.48 74.0398 36.6C74.1598 36.72 74.2798 36.72 74.3998 36.72C74.5198 36.72 74.6398 36.72 74.7598 36.6C74.8798 36.48 74.8798 36.36 74.8798 36.24V33.84C74.8798 33.48 74.8798 33.24 74.7598 33C74.6398 32.76 74.5198 32.52 74.2798 32.28C73.7998 31.92 73.0798 31.92 72.5998 32.28C72.4798 32.4 72.3598 32.4 72.2398 32.52C72.2398 32.4 72.2398 32.28 72.1198 32.16C71.8798 31.92 71.6398 31.92 71.3998 32.16C71.2798 32.28 71.2798 32.4 71.2798 32.52V36.12C71.2798 36.24 71.2798 36.36 71.3998 36.48C71.6398 36.84 71.9998 36.84 72.1198 36.6Z" fill="#978959"/>
<path d="M75.9598 72.5999C76.1998 73.4399 77.1598 73.9199 77.9998 73.7999V83.7599C77.9998 84.4799 78.5998 85.0799 79.3198 85.0799H83.3998H91.1998H95.2798C95.9998 85.0799 96.5998 84.4799 96.5998 83.7599V73.7999C96.7198 73.7999 96.8398 73.7999 96.9598 73.7999C97.1998 73.7999 97.4398 73.7999 97.6798 73.6799C98.1598 73.4399 98.5198 73.0799 98.7598 72.5999C98.9998 71.7599 98.6398 70.9199 97.9198 70.5599L96.4798 69.5999V66.3599C97.0798 66.2399 97.5598 65.6399 97.5598 65.0399C97.5598 64.3199 96.9598 63.5999 96.1198 63.5999H92.7598C92.0398 63.5999 91.3198 64.1999 91.3198 65.0399C91.3198 65.6399 91.7998 66.2399 92.3998 66.3599V66.8399L88.1998 63.9599C87.5998 63.5999 86.9998 63.5999 86.3998 63.9599L76.7998 70.4399C76.0798 70.7999 75.7198 71.7599 75.9598 72.5999ZM93.4798 66.3599H95.0398V68.7599L93.4798 67.6799V66.3599ZM92.6398 64.7999H95.9998C96.1198 64.7999 96.2398 64.9199 96.2398 65.0399C96.2398 65.1599 96.1198 65.1599 96.1198 65.1599H92.7598C92.6398 65.1599 92.6398 65.0399 92.6398 65.0399C92.5198 64.7999 92.6398 64.7999 92.6398 64.7999ZM89.8798 83.8799H84.4798V77.6399C84.4798 77.3999 84.7198 77.1599 84.9598 77.1599H89.3998C89.6398 77.1599 89.8798 77.3999 89.8798 77.6399V83.8799ZM95.2798 83.8799H91.1998V77.6399C91.1998 76.6799 90.4798 75.9599 89.5198 75.9599H85.0798C84.1198 75.9599 83.3998 76.6799 83.3998 77.6399V83.8799H79.3198C79.3198 83.8799 79.1998 83.8799 79.1998 83.7599V73.0799L87.1198 67.5599C87.2398 67.5599 87.2398 67.5599 87.3598 67.5599L95.3998 73.0799L95.2798 83.8799C95.2798 83.7599 95.2798 83.8799 95.2798 83.8799ZM77.5198 71.3999L86.9998 64.9199C87.1198 64.7999 87.3598 64.7999 87.4798 64.9199L97.0798 71.3999C97.3198 71.5199 97.4398 71.7599 97.4398 72.1199C97.4398 72.2399 97.3198 72.4799 97.0798 72.4799C96.9598 72.5999 96.7198 72.4799 96.5998 72.4799L87.9598 66.4799C87.4798 66.2399 86.9998 66.2399 86.5198 66.4799L77.8798 72.4799C77.6398 72.5999 77.2798 72.5999 77.0398 72.1199C77.0398 71.8799 77.1598 71.6399 77.5198 71.3999Z" fill="#978959"/>
<path d="M87.2397 69.8398C85.7997 69.8398 84.7197 70.9198 84.7197 72.3598C84.7197 73.7998 85.7997 74.8798 87.2397 74.8798C88.6797 74.8798 89.7597 73.7998 89.7597 72.3598C89.7597 70.9198 88.6797 69.8398 87.2397 69.8398ZM87.2397 73.6798C86.5197 73.6798 85.9197 73.0798 85.9197 72.3598C85.9197 71.6398 86.5197 71.0398 87.2397 71.0398C87.9597 71.0398 88.5597 71.6398 88.5597 72.3598C88.5597 73.0798 87.9597 73.6798 87.2397 73.6798Z" fill="#978959"/>
<path d="M88.9198 79.9199C88.5598 79.9199 88.3198 80.1599 88.3198 80.5199C88.3198 80.8799 88.5598 81.1199 88.9198 81.1199C89.2798 81.1199 89.5198 80.8799 89.5198 80.5199C89.5198 80.1599 89.1598 79.9199 88.9198 79.9199Z" fill="#978959"/>
<path d="M19.1996 65.76C16.1996 68.64 14.5196 72.6 14.5196 76.68C14.3996 82.32 17.3996 87.24 21.8396 90H17.9996C17.2796 90 16.7996 90.48 16.7996 91.2C16.7996 91.92 17.2796 92.4 17.9996 92.4L100.32 92.52C101.04 92.52 101.52 92.04 101.52 91.32C101.52 90.6 101.04 90.12 100.32 90.12H96.1196C101.64 87 105.36 81.12 105.36 74.28C105.36 64.32 97.1996 56.16 87.2396 56.16C85.3196 56.16 83.5196 56.52 81.7196 57V29.64C81.7196 26.04 78.8396 23.04 75.1196 23.04H24.7196C21.1196 23.04 18.2396 25.92 18.2396 29.64V37.2C18.2396 37.92 18.7196 38.4 19.4396 38.4H28.9196V61.44C25.3196 61.68 21.8396 63.24 19.1996 65.76ZM16.9196 76.8C16.9196 73.32 18.3596 69.96 20.8796 67.56C23.3996 65.16 26.6396 63.84 30.1196 63.84C33.5996 63.84 36.9596 65.16 39.4796 67.8C41.8796 70.32 43.3196 73.68 43.1996 77.16C43.0796 80.64 41.7596 84 39.2396 86.4C36.7196 88.8 33.4796 90.12 29.9996 90.12H29.8796C22.6796 90 16.9196 84 16.9196 76.8ZM38.3996 90.12C40.4396 88.8 41.9996 87.24 43.3196 85.08H72.5996C74.1596 87.12 76.0796 88.92 78.2396 90.12H38.3996ZM44.6396 82.44C45.2396 80.76 45.5996 78.96 45.7196 77.04C45.7196 76.44 45.7196 75.84 45.5996 75.12H69.2396C69.3596 77.76 70.0796 80.16 71.1596 82.32H44.6396V82.44ZM69.1196 72.72H45.1196C44.3996 70.2 43.0796 68.04 41.2796 66.12C41.0396 65.88 40.7996 65.76 40.6796 65.52H71.5196C70.1996 67.68 69.3596 70.08 69.1196 72.72ZM103.08 74.28C103.08 82.92 95.9996 90 87.3596 90C78.7196 90 71.6396 82.92 71.6396 74.28C71.6396 65.64 78.7196 58.56 87.3596 58.56C95.9996 58.56 103.08 65.64 103.08 74.28ZM72.3596 63.96V63.84H72.4796C72.4796 63.84 72.4796 63.84 72.3596 63.96ZM75.2396 25.44C77.5196 25.44 79.4396 27.24 79.4396 29.64V57.96C77.0396 59.16 74.8796 60.84 73.1996 62.88H36.9596C36.9596 62.88 36.9596 62.88 36.8396 62.88C35.1596 62.04 33.2396 61.56 31.3196 61.44V37.32V29.64C31.3196 28.2 30.8396 26.64 29.8796 25.56H75.2396V25.44ZM20.6396 36V29.52C20.6396 27.24 22.5596 25.32 24.8396 25.32C27.1196 25.32 29.0396 27.24 29.0396 29.4V36H20.6396Z" fill="#978959"/>
<path d="M30.4796 86.64C30.5996 86.52 30.5996 86.4 30.5996 86.28V84.72C30.8396 84.72 32.0396 84.6 33.2396 84C34.6796 83.28 35.6396 82.08 35.6396 80.4C35.6396 79.44 35.3996 78.72 34.9196 78.12C34.4396 77.52 33.8396 77.16 33.1196 76.8C32.0396 76.32 30.7196 76.08 30.5996 76.08V71.04H31.0796C31.9196 71.16 32.8796 71.28 33.7196 71.64C33.8396 71.76 34.0796 71.76 34.1996 71.76C34.4396 71.76 34.5596 71.64 34.7996 71.52C34.9196 71.28 35.0396 71.16 35.0396 70.92C35.0396 70.44 34.7996 70.2 34.4396 70.08C33.3596 69.72 32.2796 69.48 31.0796 69.36H30.5996V67.8C30.5996 67.68 30.5996 67.56 30.4796 67.44C30.2396 67.2 29.8796 67.2 29.7596 67.44C29.6396 67.56 29.6396 67.68 29.6396 67.8V69.36C29.3996 69.36 28.0796 69.48 26.8796 70.08C26.1596 70.44 25.5596 71.04 25.1996 71.64C24.8396 72.24 24.5996 72.96 24.5996 73.8C24.5996 74.64 24.8396 75.36 25.3196 75.96C25.7996 76.56 26.3996 76.92 27.1196 77.28C28.1996 77.76 29.5196 78 29.6396 78.12V82.92H29.1596C27.9596 82.8 26.8796 82.56 25.9196 82.08C25.5596 81.96 25.0796 81.96 24.8396 82.32C24.7196 82.44 24.5996 82.68 24.5996 82.92C24.5996 83.16 24.5996 83.28 24.7196 83.4C24.8396 83.52 24.9596 83.64 25.1996 83.76C26.3996 84.36 27.8396 84.6 29.2796 84.72H29.7596V86.4C29.7596 86.52 29.7596 86.64 29.8796 86.76C29.9996 86.88 30.1196 86.88 30.2396 86.88C30.2396 86.76 30.4796 86.64 30.4796 86.64ZM32.8796 78.96C33.3596 79.32 33.5996 79.68 33.5996 80.28C33.5996 81.6 32.7596 82.44 31.1996 82.68L30.5996 82.8V78.24C31.0796 78.24 32.1596 78.6 32.8796 78.96ZM28.9196 75.6C28.1996 75.36 27.7196 75.12 27.3596 74.88C26.8796 74.52 26.6396 74.04 26.6396 73.44C26.6396 72.72 26.8796 72.24 27.4796 71.76C27.9596 71.4 28.4396 71.28 29.0396 71.04L29.6396 70.92V75.72L28.9196 75.6Z" fill="#978959"/>
</svg>
